<svg width="36" height="36" viewBox="0 0 36 36" fill="none" xmlns="http://www.w3.org/2000/svg">
<path d="M18 31.4997C17.0325 30.6417 15.939 29.7492 14.7825 28.7997H14.7675C10.695 25.4697 6.07953 21.7017 4.04103 17.1867C3.37131 15.7493 3.01639 14.1854 3.00002 12.5997C2.99554 10.424 3.86819 8.33821 5.42075 6.81388C6.9733 5.28956 9.07471 4.45533 11.25 4.49973C13.021 4.50253 14.7538 5.01436 16.242 5.97423C16.896 6.39869 17.4877 6.91212 18 7.49973C18.5153 6.91442 19.1071 6.4013 19.7595 5.97423C21.2471 5.01417 22.9795 4.50231 24.75 4.49973C26.9254 4.45533 29.0268 5.28956 30.5793 6.81388C32.1319 8.33821 33.0045 10.424 33.0001 12.5997C32.9847 14.188 32.6298 15.7545 31.959 17.1942C29.9205 21.7092 25.3065 25.4757 21.234 28.7997L21.219 28.8117C20.061 29.7552 18.969 30.6477 18.0015 31.5117L18 31.4997ZM11.25 7.49973C9.8528 7.48225 8.50514 8.017 7.50003 8.98773C6.53161 9.93898 5.99037 11.2423 5.99991 12.5997C6.01702 13.7555 6.27877 14.8945 6.76803 15.9417C7.7303 17.8898 9.0287 19.6528 10.6035 21.1497C12.09 22.6497 13.8 24.1017 15.279 25.3227C15.6885 25.6602 16.1055 26.0007 16.5225 26.3412L16.785 26.5557C17.1855 26.8827 17.5995 27.2217 18 27.5547L18.0195 27.5367L18.0285 27.5292H18.0375L18.051 27.5187H18.0585H18.066L18.093 27.4962L18.1545 27.4467L18.165 27.4377L18.1815 27.4257H18.1905L18.204 27.4137L19.2 26.5962L19.461 26.3817C19.8825 26.0382 20.2995 25.6977 20.709 25.3602C22.188 24.1392 23.8995 22.6887 25.386 21.1812C26.9611 19.6851 28.2595 17.9225 29.2215 15.9747C29.7196 14.9184 29.9851 13.7675 30.0001 12.5997C30.0063 11.2465 29.4653 9.94817 28.5 8.99973C27.4969 8.02461 26.149 7.48546 24.75 7.49973C23.0429 7.48523 21.4109 8.20079 20.265 9.46623L18 12.0762L15.735 9.46623C14.5891 8.20079 12.9571 7.48523 11.25 7.49973Z" fill="white"/>
</svg>
