<svg width="48" height="48" viewBox="0 0 48 48" fill="none" xmlns="http://www.w3.org/2000/svg">
<g clip-path="url(#clip0)">
<g clip-path="url(#clip1)">
<g clip-path="url(#clip2)">
<path d="M47.532 24.5525C47.532 22.921 47.3997 21.2808 47.1175 19.6758H24.48V28.9177H37.4434C36.9055 31.8984 35.177 34.5352 32.6461 36.2108V42.2075H40.3801C44.9217 38.0274 47.532 31.8544 47.532 24.5525Z" fill="white"/>
<path d="M24.4797 48.0016C30.9526 48.0016 36.4114 45.8764 40.3886 42.2078L32.6546 36.2111C30.5029 37.675 27.725 38.5039 24.4885 38.5039C18.2273 38.5039 12.9184 34.2798 11.0136 28.6006H3.03271V34.7825C7.10694 42.8868 15.4053 48.0016 24.4797 48.0016V48.0016Z" fill="white"/>
<path d="M11.0051 28.6004C9.99973 25.6197 9.99973 22.3921 11.0051 19.4114V13.2295H3.03298C-0.371021 20.011 -0.371021 28.0008 3.03298 34.7823L11.0051 28.6004V28.6004Z" fill="white"/>
<path d="M24.4797 9.49932C27.9014 9.44641 31.2084 10.7339 33.6864 13.0973L40.5385 6.24523C36.1997 2.17101 30.4411 -0.068932 24.4797 0.00161733C15.4053 0.00161733 7.10694 5.11644 3.03271 13.2296L11.0048 19.4115C12.9008 13.7235 18.2185 9.49932 24.4797 9.49932V9.49932Z" fill="white"/>
</g>
</g>
</g>
<defs>
<clipPath id="clip0">
<rect width="48" height="48" fill="white"/>
</clipPath>
<clipPath id="clip1">
<rect width="48" height="48" fill="white"/>
</clipPath>
<clipPath id="clip2">
<rect width="48" height="48" fill="white"/>
</clipPath>
</defs>
</svg>
