<svg width="79" height="25" viewBox="0 0 79 25" fill="none" xmlns="http://www.w3.org/2000/svg">
<rect x="1" y="1" width="77" height="22.3077" rx="11.1538" fill="white" stroke="white" stroke-width="2"/>
<path d="M26.4253 10.2983V9.94327C26.4253 9.84005 26.4593 9.75445 26.5273 9.68647C26.5953 9.61849 26.6809 9.5845 26.7841 9.5845H31.5765C31.6797 9.5845 31.7653 9.61849 31.8333 9.68647C31.9012 9.75445 31.9352 9.84005 31.9352 9.94327V10.2983C31.9352 10.4015 31.9012 10.4871 31.8333 10.5551C31.7653 10.6205 31.6797 10.6533 31.5765 10.6533H29.8921V14.6526C29.8921 14.7508 29.8569 14.8338 29.7864 14.9018C29.7184 14.9673 29.6353 15 29.5371 15H28.8234C28.7252 15 28.6409 14.9673 28.5704 14.9018C28.5024 14.8338 28.4684 14.7508 28.4684 14.6526V10.6533H26.7841C26.6809 10.6533 26.5953 10.6205 26.5273 10.5551C26.4593 10.4871 26.4253 10.4015 26.4253 10.2983ZM34.8848 11.8202L34.3032 11.7975C33.9634 11.7975 33.6386 11.9838 33.3289 12.3565V14.7696C33.3289 14.8376 33.3062 14.893 33.2609 14.9358C33.2181 14.9786 33.164 15 33.0985 15H32.2526C32.1846 15 32.1292 14.9786 32.0864 14.9358C32.0436 14.893 32.0222 14.8376 32.0222 14.7696V11.0951C32.0222 11.0271 32.0436 10.9717 32.0864 10.9289C32.1318 10.8836 32.1871 10.861 32.2526 10.861H33.0985C33.1665 10.861 33.2219 10.8836 33.2647 10.9289C33.3075 10.9717 33.3289 11.0271 33.3289 11.0951V11.333C33.5857 11.1467 33.8324 11.0095 34.0691 10.9214C34.3083 10.8307 34.6205 10.7854 35.0057 10.7854C35.0736 10.7854 35.129 10.8081 35.1718 10.8534C35.2172 10.8962 35.2398 10.9503 35.2398 11.0158V11.5898C35.2398 11.6578 35.2172 11.7132 35.1718 11.756C35.129 11.7988 35.0736 11.8202 35.0057 11.8202H34.8848ZM35.8178 14.7281C35.4854 14.4965 35.3193 14.1692 35.3193 13.7462C35.3193 13.3232 35.4854 12.9985 35.8178 12.7719C36.1526 12.5453 36.5831 12.432 37.1093 12.432H38.3593C38.3593 12.1374 38.2977 11.9322 38.1743 11.8164C38.0509 11.7006 37.8344 11.6427 37.5247 11.6427C37.2176 11.6427 37.0011 11.7195 36.8752 11.8731C36.7518 12.0241 36.5995 12.0997 36.4182 12.0997H35.8555C35.7876 12.0997 35.7309 12.0783 35.6856 12.0354C35.6428 11.9901 35.6214 11.9347 35.6214 11.8693C35.6214 11.1467 36.3075 10.7854 37.6796 10.7854C38.2788 10.7854 38.7597 10.9201 39.1222 11.1895C39.4847 11.4564 39.666 11.8705 39.666 12.432V14.7696C39.666 14.8376 39.6446 14.893 39.6018 14.9358C39.559 14.9786 39.5036 15 39.4356 15H38.7068C38.6388 15 38.5834 14.9786 38.5406 14.9358C38.4978 14.8905 38.4764 14.8351 38.4764 14.7696V14.6526C38.0786 14.9371 37.6192 15.078 37.098 15.0755C36.5794 15.0755 36.1526 14.9597 35.8178 14.7281ZM37.2 13.2892C37.0237 13.2892 36.884 13.332 36.7808 13.4176C36.6801 13.5032 36.6297 13.614 36.6297 13.75C36.6297 13.8859 36.6826 13.998 36.7883 14.0861C36.8941 14.1742 37.0439 14.2183 37.2377 14.2183C37.6254 14.2183 37.9993 14.105 38.3593 13.8784V13.2892H37.2ZM40.4441 10.0717V9.94327C40.4441 9.80983 40.4819 9.70409 40.5574 9.62604C40.6355 9.548 40.7425 9.50897 40.8784 9.50897H41.3467C41.4801 9.50897 41.5859 9.548 41.6639 9.62604C41.742 9.70157 41.781 9.80732 41.781 9.94327V10.0717C41.781 10.2051 41.742 10.3108 41.6639 10.3889C41.5884 10.4669 41.4827 10.506 41.3467 10.506H40.8784C40.745 10.506 40.6392 10.4669 40.5612 10.3889C40.4831 10.3108 40.4441 10.2051 40.4441 10.0717ZM40.4592 14.7696V11.1857C40.4592 11.1178 40.4806 11.0624 40.5234 11.0196C40.5687 10.9768 40.6241 10.9554 40.6896 10.9554H41.5355C41.6035 10.9554 41.6589 10.978 41.7017 11.0233C41.7445 11.0661 41.7659 11.1203 41.7659 11.1857V14.7696C41.7659 14.8376 41.7432 14.893 41.6979 14.9358C41.6551 14.9786 41.601 15 41.5355 15H40.6896C40.6216 15 40.5662 14.9786 40.5234 14.9358C40.4806 14.893 40.4592 14.8376 40.4592 14.7696ZM42.5553 14.7696V9.81865C42.5553 9.75067 42.5767 9.69528 42.6195 9.65248C42.6649 9.60716 42.7202 9.5845 42.7857 9.5845H43.6316C43.6971 9.5845 43.7512 9.60716 43.794 9.65248C43.8393 9.69528 43.862 9.75067 43.862 9.81865V14.7696C43.862 14.8351 43.8393 14.8905 43.794 14.9358C43.7512 14.9786 43.6971 15 43.6316 15H42.7857C42.7202 15 42.6649 14.9786 42.6195 14.9358C42.5767 14.8905 42.5553 14.8351 42.5553 14.7696ZM44.9838 14.5242C44.5961 14.1566 44.4022 13.6279 44.4022 12.938C44.4022 12.2457 44.5973 11.7144 44.9876 11.3444C45.3778 10.9717 45.9191 10.7854 46.6114 10.7854C47.3038 10.7854 47.8438 10.9667 48.2316 11.3292C48.6193 11.6893 48.8131 12.2067 48.8131 12.8814V13.0966C48.8131 13.1646 48.7905 13.2213 48.7452 13.2666C48.7024 13.3094 48.647 13.3308 48.579 13.3308H45.7353C45.7605 13.6405 45.8486 13.8658 45.9997 14.0068C46.1532 14.1478 46.3974 14.2183 46.7323 14.2183C47.0671 14.2183 47.2963 14.1427 47.4196 13.9917C47.543 13.8406 47.6953 13.7638 47.8766 13.7613H48.4393C48.5072 13.7613 48.5626 13.784 48.6054 13.8293C48.6508 13.8721 48.6734 13.9275 48.6734 13.9955C48.6734 14.718 47.9848 15.078 46.6077 15.0755C45.9128 15.0755 45.3715 14.8917 44.9838 14.5242ZM45.7277 12.5339H47.4838C47.4586 11.9398 47.1666 11.6427 46.6077 11.6427C46.0513 11.6427 45.758 11.9398 45.7277 12.5339ZM52.2159 11.8202L51.6343 11.7975C51.2945 11.7975 50.9697 11.9838 50.66 12.3565V14.7696C50.66 14.8376 50.6373 14.893 50.592 14.9358C50.5492 14.9786 50.4951 15 50.4296 15H49.5837C49.5157 15 49.4603 14.9786 49.4175 14.9358C49.3747 14.893 49.3533 14.8376 49.3533 14.7696V11.0951C49.3533 11.0271 49.3747 10.9717 49.4175 10.9289C49.4629 10.8836 49.5182 10.861 49.5837 10.861H50.4296C50.4976 10.861 50.553 10.8836 50.5958 10.9289C50.6386 10.9717 50.66 11.0271 50.66 11.0951V11.333C50.9168 11.1467 51.1635 11.0095 51.4002 10.9214C51.6394 10.8307 51.9516 10.7854 52.3368 10.7854C52.4047 10.7854 52.4601 10.8081 52.5029 10.8534C52.5483 10.8962 52.5709 10.9503 52.5709 11.0158V11.5898C52.5709 11.6578 52.5483 11.7132 52.5029 11.756C52.4601 11.7988 52.4047 11.8202 52.3368 11.8202H52.2159Z" fill="#27292F"/>
</svg>
