<svg width="93" height="39" viewBox="0 0 93 39" fill="none" xmlns="http://www.w3.org/2000/svg">
<g filter="url(#filter0_d_442:227)">
<rect x="8" y="5" width="77" height="22.3077" rx="11.1538" fill="#27292F" stroke="white" stroke-width="2"/>
</g>
<path d="M16.9239 13.0674C16.9093 13.0322 16.902 12.9927 16.902 12.9487C16.902 12.9019 16.9269 12.8491 16.9767 12.7905C17.0294 12.729 17.107 12.6982 17.2096 12.6982H18.172C18.2862 12.6982 18.3917 12.7378 18.4884 12.8169C18.5851 12.896 18.6539 12.9956 18.6949 13.1157L19.8551 16.5962L20.9273 13.1157C21.0123 12.8374 21.1866 12.6982 21.4503 12.6982H22.2589C22.5226 12.6982 22.6969 12.8374 22.7818 13.1157L23.8541 16.5962L25.0143 13.1157C25.0553 12.9956 25.1241 12.896 25.2208 12.8169C25.3175 12.7378 25.4229 12.6982 25.5372 12.6982H26.4996C26.5992 12.6982 26.6739 12.729 26.7237 12.7905C26.7765 12.8491 26.8028 12.9019 26.8028 12.9487C26.8028 12.9927 26.797 13.0322 26.7853 13.0674L24.8253 18.5518C24.7169 18.8506 24.506 19 24.1925 19H23.5553C23.2301 19 23.0206 18.8506 22.9269 18.5518L21.8546 15.168L20.7823 18.5518C20.6856 18.8506 20.4762 19 20.1539 19H19.5123C19.2018 19 18.9923 18.8506 18.8839 18.5518L16.9239 13.0674ZM27.3435 18.6836C26.9568 18.4141 26.7635 18.0332 26.7635 17.541C26.7635 17.0488 26.9568 16.6709 27.3435 16.4072C27.7332 16.1436 28.2342 16.0117 28.8465 16.0117H30.3011C30.3011 15.6689 30.2293 15.4302 30.0857 15.2954C29.9422 15.1606 29.6902 15.0933 29.3299 15.0933C28.9724 15.0933 28.7205 15.1826 28.574 15.3613C28.4304 15.5371 28.2532 15.625 28.0423 15.625H27.3875C27.3084 15.625 27.2425 15.6001 27.1897 15.5503C27.1399 15.4976 27.115 15.4331 27.115 15.3569C27.115 14.5161 27.9134 14.0957 29.51 14.0957C30.2073 14.0957 30.7669 14.2524 31.1887 14.5659C31.6106 14.8765 31.8216 15.3584 31.8216 16.0117V18.7319C31.8216 18.811 31.7967 18.8755 31.7469 18.9253C31.6971 18.9751 31.6326 19 31.5535 19H30.7054C30.6262 19 30.5618 18.9751 30.512 18.9253C30.4622 18.8726 30.4373 18.8081 30.4373 18.7319V18.5957C29.9744 18.9268 29.4397 19.0908 28.8333 19.0879C28.2298 19.0879 27.7332 18.9531 27.3435 18.6836ZM28.9519 17.0093C28.7469 17.0093 28.5843 17.0591 28.4641 17.1587C28.347 17.2583 28.2884 17.3872 28.2884 17.5454C28.2884 17.7036 28.3499 17.834 28.4729 17.9365C28.596 18.0391 28.7703 18.0903 28.9959 18.0903C29.4471 18.0903 29.8821 17.9585 30.3011 17.6948V17.0093H28.9519ZM35.021 18.0464L35.623 17.9937H35.7856C35.8647 17.9937 35.9292 18.0186 35.979 18.0684C36.0317 18.1182 36.0581 18.1826 36.0581 18.2617V18.7319C36.0581 18.7964 36.0317 18.855 35.979 18.9077C35.9292 18.9575 35.8647 18.9883 35.7856 19C35.4868 19.0586 35.0971 19.0879 34.6167 19.0879C33.3569 19.0879 32.727 18.4287 32.727 17.1104V12.9707C32.727 12.8916 32.7519 12.8271 32.8017 12.7773C32.8545 12.7246 32.9189 12.6982 32.9951 12.6982H33.9795C34.0556 12.6982 34.1186 12.7246 34.1684 12.7773C34.2212 12.8271 34.2475 12.8916 34.2475 12.9707V14.4385H35.4736C35.5498 14.4385 35.6128 14.4634 35.6626 14.5132C35.7153 14.563 35.7417 14.6274 35.7417 14.7065V15.2295C35.7417 15.3086 35.7153 15.373 35.6626 15.4229C35.6128 15.4727 35.5498 15.4976 35.4736 15.4976H34.2475V17.1104C34.2475 17.4092 34.3178 17.6406 34.4585 17.8047C34.5991 17.9658 34.7866 18.0464 35.021 18.0464ZM38.8839 19.0879C38.0636 19.0879 37.4249 18.877 36.9679 18.4551C36.5109 18.0332 36.2824 17.4136 36.2824 16.5962C36.2824 15.7759 36.5094 15.1548 36.9635 14.7329C37.4176 14.3081 38.049 14.0957 38.8576 14.0957C39.6691 14.0957 40.2916 14.2246 40.7252 14.4824C41.1618 14.7402 41.38 15.1211 41.38 15.625C41.38 15.7041 41.3537 15.7686 41.3009 15.8184C41.2511 15.8682 41.1867 15.8931 41.1076 15.8931H40.4528C40.2536 15.8931 40.0851 15.7861 39.9474 15.5723C39.7745 15.2969 39.4684 15.1592 39.0289 15.1592C38.5924 15.1592 38.2863 15.272 38.1105 15.4976C37.9376 15.7202 37.8512 16.085 37.8512 16.5918C37.8512 17.0986 37.9406 17.4648 38.1193 17.6904C38.3009 17.916 38.6144 18.0288 39.0597 18.0288C39.5079 18.0288 39.8185 17.8911 39.9913 17.6157C40.129 17.3989 40.2975 17.2905 40.4967 17.2905H41.1515C41.2306 17.2905 41.2951 17.3169 41.3449 17.3696C41.3976 17.4194 41.424 17.4824 41.424 17.5586C41.424 18.0625 41.2057 18.4434 40.7692 18.7012C40.3356 18.959 39.7072 19.0879 38.8839 19.0879ZM41.9647 18.7319V12.9707C41.9647 12.8916 41.9896 12.8271 42.0394 12.7773C42.0921 12.7246 42.1566 12.6982 42.2327 12.6982H43.2171C43.2933 12.6982 43.3563 12.7246 43.4061 12.7773C43.4588 12.8271 43.4852 12.8916 43.4852 12.9707V14.7329C43.9891 14.3081 44.5252 14.0957 45.0936 14.0957C45.6649 14.0957 46.1292 14.27 46.4866 14.6187C46.8441 14.9644 47.0228 15.4946 47.0228 16.2095V18.7319C47.0228 18.8081 46.9964 18.8726 46.9437 18.9253C46.8939 18.9751 46.8294 19 46.7503 19H45.7703C45.6942 19 45.6297 18.9751 45.577 18.9253C45.5272 18.8726 45.5023 18.8081 45.5023 18.7319V16.2095C45.5023 15.5093 45.2225 15.1592 44.6629 15.1592C44.2967 15.1592 43.9041 15.3687 43.4852 15.7876V18.7319C43.4852 18.8081 43.4588 18.8726 43.4061 18.9253C43.3563 18.9751 43.2933 19 43.2171 19H42.2327C42.1566 19 42.0921 18.9751 42.0394 18.9253C41.9896 18.8726 41.9647 18.8081 41.9647 18.7319ZM50.9914 18.5957V13.1245C50.9914 13.0044 51.0324 12.9033 51.1144 12.8213C51.1965 12.7393 51.2946 12.6982 51.4089 12.6982H52.235C52.3493 12.6982 52.446 12.7393 52.5251 12.8213C52.6071 12.9033 52.6481 13.0044 52.6481 13.1245V17.7563H56.4758C56.59 17.7563 56.6867 17.7974 56.7658 17.8794C56.8478 17.9614 56.8888 18.0596 56.8888 18.1738V18.5869C56.8888 18.7012 56.8478 18.7993 56.7658 18.8813C56.6867 18.9604 56.59 19 56.4758 19H51.4089C51.2946 19 51.1965 18.9619 51.1144 18.8857C51.0324 18.8066 50.9914 18.71 50.9914 18.5957ZM57.6493 18.6836C57.2626 18.4141 57.0692 18.0332 57.0692 17.541C57.0692 17.0488 57.2626 16.6709 57.6493 16.4072C58.0389 16.1436 58.5399 16.0117 59.1522 16.0117H60.6068C60.6068 15.6689 60.535 15.4302 60.3915 15.2954C60.2479 15.1606 59.996 15.0933 59.6356 15.0933C59.2782 15.0933 59.0262 15.1826 58.8797 15.3613C58.7362 15.5371 58.5589 15.625 58.348 15.625H57.6932C57.6141 15.625 57.5482 15.6001 57.4955 15.5503C57.4457 15.4976 57.4208 15.4331 57.4208 15.3569C57.4208 14.5161 58.2191 14.0957 59.8158 14.0957C60.513 14.0957 61.0726 14.2524 61.4945 14.5659C61.9164 14.8765 62.1273 15.3584 62.1273 16.0117V18.7319C62.1273 18.811 62.1024 18.8755 62.0526 18.9253C62.0028 18.9751 61.9383 19 61.8592 19H61.0111C60.932 19 60.8675 18.9751 60.8177 18.9253C60.7679 18.8726 60.743 18.8081 60.743 18.7319V18.5957C60.2801 18.9268 59.7455 19.0908 59.139 19.0879C58.5355 19.0879 58.0389 18.9531 57.6493 18.6836ZM59.2577 17.0093C59.0526 17.0093 58.89 17.0591 58.7699 17.1587C58.6527 17.2583 58.5941 17.3872 58.5941 17.5454C58.5941 17.7036 58.6556 17.834 58.7787 17.9365C58.9017 18.0391 59.076 18.0903 59.3016 18.0903C59.7528 18.0903 60.1879 17.9585 60.6068 17.6948V17.0093H59.2577ZM65.3267 18.0464L65.9287 17.9937H66.0913C66.1704 17.9937 66.2349 18.0186 66.2847 18.0684C66.3374 18.1182 66.3638 18.1826 66.3638 18.2617V18.7319C66.3638 18.7964 66.3374 18.855 66.2847 18.9077C66.2349 18.9575 66.1704 18.9883 66.0913 19C65.7925 19.0586 65.4029 19.0879 64.9224 19.0879C63.6626 19.0879 63.0328 18.4287 63.0328 17.1104V12.9707C63.0328 12.8916 63.0577 12.8271 63.1075 12.7773C63.1602 12.7246 63.2246 12.6982 63.3008 12.6982H64.2852C64.3614 12.6982 64.4244 12.7246 64.4742 12.7773C64.5269 12.8271 64.5533 12.8916 64.5533 12.9707V14.4385H65.7793C65.8555 14.4385 65.9185 14.4634 65.9683 14.5132C66.021 14.563 66.0474 14.6274 66.0474 14.7065V15.2295C66.0474 15.3086 66.021 15.373 65.9683 15.4229C65.9185 15.4727 65.8555 15.4976 65.7793 15.4976H64.5533V17.1104C64.5533 17.4092 64.6236 17.6406 64.7642 17.8047C64.9048 17.9658 65.0923 18.0464 65.3267 18.0464ZM67.2649 18.4463C66.8137 18.0186 66.5881 17.4033 66.5881 16.6006C66.5881 15.7949 66.8152 15.1768 67.2693 14.7461C67.7234 14.3125 68.3532 14.0957 69.1589 14.0957C69.9646 14.0957 70.593 14.3066 71.0442 14.7285C71.4953 15.1475 71.7209 15.7495 71.7209 16.5347V16.7852C71.7209 16.8643 71.6945 16.9302 71.6418 16.9829C71.592 17.0327 71.5276 17.0576 71.4485 17.0576H68.1394C68.1687 17.418 68.2712 17.6802 68.447 17.8442C68.6257 18.0083 68.9099 18.0903 69.2995 18.0903C69.6892 18.0903 69.9558 18.0024 70.0993 17.8267C70.2429 17.6509 70.4201 17.5615 70.6311 17.5586H71.2859C71.365 17.5586 71.4294 17.585 71.4792 17.6377C71.532 17.6875 71.5583 17.752 71.5583 17.8311C71.5583 18.6719 70.757 19.0908 69.1545 19.0879C68.3459 19.0879 67.716 18.874 67.2649 18.4463ZM68.1306 16.1304H70.174C70.1447 15.439 69.8049 15.0933 69.1545 15.0933C68.507 15.0933 68.1657 15.439 68.1306 16.1304ZM75.6806 15.2998L75.0038 15.2734C74.6083 15.2734 74.2304 15.4902 73.87 15.9238V18.7319C73.87 18.811 73.8437 18.8755 73.7909 18.9253C73.7411 18.9751 73.6781 19 73.602 19H72.6176C72.5385 19 72.474 18.9751 72.4242 18.9253C72.3744 18.8755 72.3495 18.811 72.3495 18.7319V14.4561C72.3495 14.377 72.3744 14.3125 72.4242 14.2627C72.477 14.21 72.5414 14.1836 72.6176 14.1836H73.602C73.6811 14.1836 73.7455 14.21 73.7953 14.2627C73.8451 14.3125 73.87 14.377 73.87 14.4561V14.7329C74.1688 14.5161 74.456 14.3564 74.7313 14.2539C75.0097 14.1484 75.3729 14.0957 75.8212 14.0957C75.9003 14.0957 75.9647 14.1221 76.0145 14.1748C76.0673 14.2246 76.0937 14.2876 76.0937 14.3638V15.0317C76.0937 15.1108 76.0673 15.1753 76.0145 15.2251C75.9647 15.2749 75.9003 15.2998 75.8212 15.2998H75.6806Z" fill="white"/>
<defs>
<filter id="filter0_d_442:227" x="0.331861" y="0.665931" width="92.3363" height="37.6449" filterUnits="userSpaceOnUse" color-interpolation-filters="sRGB">
<feFlood flood-opacity="0" result="BackgroundImageFix"/>
<feColorMatrix in="SourceAlpha" type="matrix" values="0 0 0 0 0 0 0 0 0 0 0 0 0 0 0 0 0 0 127 0" result="hardAlpha"/>
<feOffset dy="3.33407"/>
<feGaussianBlur stdDeviation="3.33407"/>
<feComposite in2="hardAlpha" operator="out"/>
<feColorMatrix type="matrix" values="0 0 0 0 0 0 0 0 0 0 0 0 0 0 0 0 0 0 0.25 0"/>
<feBlend mode="normal" in2="BackgroundImageFix" result="effect1_dropShadow_442:227"/>
<feBlend mode="normal" in="SourceGraphic" in2="effect1_dropShadow_442:227" result="shape"/>
</filter>
</defs>
</svg>
