<svg width="32" height="32" viewBox="0 0 32 32" fill="none" xmlns="http://www.w3.org/2000/svg">
<path fill-rule="evenodd" clip-rule="evenodd" d="M16 7C14.8954 7 14 7.89543 14 9V13.5H9.5C8.39543 13.5 7.5 14.3954 7.5 15.5C7.5 16.6046 8.39543 17.5 9.5 17.5H14V22C14 23.1046 14.8954 24 16 24C17.1046 24 18 23.1046 18 22V17.5H22.5C23.6046 17.5 24.5 16.6046 24.5 15.5C24.5 14.3954 23.6046 13.5 22.5 13.5H18V9C18 7.89543 17.1046 7 16 7Z" fill="white"/>
<circle cx="16" cy="16" r="15" stroke="white" stroke-width="2"/>
</svg>
