<svg width="39" height="39" viewBox="0 0 39 39" fill="none" xmlns="http://www.w3.org/2000/svg">
<path d="M18.3039 3.26131C18.6375 2.23479 20.0897 2.23479 20.4233 3.26131L23.4608 12.61C23.61 13.0691 24.0378 13.3799 24.5205 13.3799H34.3503C35.4297 13.3799 35.8784 14.7611 35.0052 15.3955L27.0527 21.1733C26.6622 21.4571 26.4988 21.96 26.648 22.419L29.6856 31.7678C30.0191 32.7943 28.8442 33.6479 27.971 33.0135L20.0185 27.2356C19.628 26.9519 19.0992 26.9519 18.7087 27.2356L10.7562 33.0135C9.88298 33.6479 8.70809 32.7943 9.04162 31.7677L12.0792 22.419C12.2284 21.96 12.065 21.4571 11.6744 21.1733L3.72196 15.3955C2.84875 14.7611 3.29752 13.3799 4.37687 13.3799H14.2067C14.6894 13.3799 15.1172 13.0691 15.2663 12.61L18.3039 3.26131Z" fill="white"/>
</svg>
