<svg width="41" height="38" viewBox="0 0 41 38" fill="none" xmlns="http://www.w3.org/2000/svg">
<path d="M19.3429 0.980965C19.7501 -0.272073 21.5228 -0.272074 21.9299 0.980964L25.6378 12.3926C25.8198 12.953 26.342 13.3324 26.9313 13.3324H38.9301C40.2477 13.3324 40.7955 15.0183 39.7296 15.7927L30.0223 22.8455C29.5456 23.1918 29.3461 23.8057 29.5282 24.3661L33.236 35.7777C33.6432 37.0307 32.209 38.0727 31.1431 37.2983L21.4358 30.2455C20.9591 29.8992 20.3137 29.8992 19.837 30.2455L10.1297 37.2983C9.06379 38.0727 7.62963 37.0307 8.03677 35.7777L11.7446 24.3661C11.9267 23.8057 11.7272 23.1918 11.2506 22.8455L1.54326 15.7927C0.477363 15.0183 1.02516 13.3324 2.34268 13.3324H14.3416C14.9308 13.3324 15.453 12.953 15.6351 12.3926L19.3429 0.980965Z" fill="white"/>
</svg>
