<svg width="188" height="81" viewBox="0 0 188 81" fill="none" xmlns="http://www.w3.org/2000/svg">
<g filter="url(#filter0_d)">
<path d="M63.8337 52.0596C62.4732 52.0596 61.4266 51.7457 60.6941 51.1177C59.9877 50.4898 59.6345 49.7834 59.6345 48.9985C59.6345 48.3183 59.883 47.7296 60.3801 47.2325C60.8772 46.7354 61.6098 46.4869 62.5778 46.4869C62.9179 46.4869 63.3104 46.5261 63.7552 46.6046C64.2261 46.6569 64.5793 46.6962 64.8148 46.7223C64.7886 46.0421 64.6316 45.4011 64.3438 44.7993C64.0822 44.1976 63.7421 43.622 63.3235 43.0726C62.9049 42.497 62.5124 41.9999 62.1461 41.5813C61.3351 43.1249 60.524 44.4069 59.713 45.4272C58.9281 46.4476 58.0647 47.4156 57.1228 48.3314C56.6519 48.8023 56.1548 49.0378 55.6315 49.0378C55.2129 49.0378 54.8728 48.8939 54.6111 48.6061C54.3495 48.2921 54.2187 47.9127 54.2187 47.468C54.2187 46.9447 54.4018 46.4607 54.7681 46.0159L55.2783 45.388C56.7173 43.6089 57.8031 42.1438 58.5356 40.9926C58.9804 40.2339 59.5037 39.2266 60.1054 37.9707C60.7072 36.6888 61.2958 35.3675 61.8714 34.007C62.3685 32.8558 63.402 32.2803 64.9718 32.2803C65.7043 32.2803 66.2145 32.3457 66.5023 32.4765C66.7901 32.6073 66.934 32.8166 66.934 33.1044C66.934 33.2614 66.8817 33.5099 66.777 33.85C66.6724 34.1902 66.5285 34.5303 66.3453 34.8704C65.8744 35.8123 65.6389 36.6103 65.6389 37.2643C65.6389 37.6568 65.7697 38.0885 66.0314 38.5594C66.3192 39.0304 66.7509 39.619 67.3264 40.3254C68.1637 41.4243 68.7916 42.3662 69.2102 43.1511C69.655 43.9098 69.8774 44.747 69.8774 45.6627C69.8774 45.9243 69.8512 46.2906 69.7989 46.7616C71.0809 46.2645 72.5852 44.9432 74.312 42.7978C74.626 42.4316 74.9792 42.2484 75.3716 42.2484C75.7117 42.2484 75.9734 42.4054 76.1565 42.7194C76.3658 43.0333 76.4705 43.465 76.4705 44.0144C76.4705 45.0086 76.2219 45.8197 75.7248 46.4476C74.4167 48.0697 73.1608 49.1817 71.9573 49.7834C70.78 50.359 69.3148 50.673 67.5619 50.7253C66.5154 51.6148 65.2726 52.0596 63.8337 52.0596ZM90.0004 42.2484C90.3405 42.2484 90.6021 42.4054 90.7853 42.7194C90.9946 43.0333 91.0992 43.465 91.0992 44.0144C91.0992 45.061 90.8507 45.872 90.3536 46.4476C89.2286 47.8343 87.9989 48.9724 86.6646 49.8619C85.3303 50.7514 83.7997 51.1962 82.073 51.1962C76.7357 51.1962 74.067 47.4418 74.067 39.933C74.067 38.7818 74.1063 37.6175 74.1848 36.4402H72.6542C71.8693 36.4402 71.333 36.2963 71.0452 36.0085C70.7836 35.7207 70.6527 35.2629 70.6527 34.6349C70.6527 33.1698 71.2414 32.4372 72.4188 32.4372H74.6557C75.1005 29.5593 75.7807 26.9299 76.6964 24.549C77.6121 22.1682 78.711 20.2714 79.993 18.8586C81.3011 17.4457 82.7009 16.7393 84.1922 16.7393C85.291 16.7393 86.1544 17.2234 86.7823 18.1914C87.4102 19.1594 87.7242 20.376 87.7242 21.8412C87.7242 25.8964 86.0236 29.4285 82.6224 32.4372H87.0178C87.4364 32.4372 87.7373 32.5288 87.9204 32.712C88.1036 32.8951 88.1951 33.2352 88.1951 33.7323C88.1951 35.5376 86.7169 36.4402 83.7605 36.4402H78.9726C78.9203 37.7484 78.8941 38.7687 78.8941 39.5013C78.8941 42.2223 79.2081 44.1322 79.836 45.231C80.4901 46.3299 81.5105 46.8793 82.8971 46.8793C84.0221 46.8793 85.0163 46.5392 85.8797 45.8589C86.7431 45.1787 87.7634 44.1583 88.9408 42.7978C89.2547 42.4316 89.6079 42.2484 90.0004 42.2484ZM83.1326 20.5068C82.7401 20.5068 82.2953 21.0039 81.7982 21.9981C81.3273 22.9662 80.8695 24.3267 80.4247 26.0796C80.0061 27.8064 79.6529 29.7294 79.3651 31.8486C80.9087 30.5142 82.0599 29.0229 82.8186 27.3747C83.6035 25.7002 83.996 24.1828 83.996 22.8223C83.996 21.2786 83.7082 20.5068 83.1326 20.5068ZM104.622 42.2484C104.962 42.2484 105.224 42.4054 105.407 42.7194C105.616 43.0333 105.721 43.465 105.721 44.0144C105.721 45.061 105.472 45.872 104.975 46.4476C104.007 47.625 102.634 48.7107 100.855 49.7049C99.1017 50.6991 97.218 51.1962 95.2034 51.1962C92.4563 51.1962 90.324 50.4506 88.8065 48.9593C87.289 47.468 86.5303 45.4272 86.5303 42.8371C86.5303 41.0318 86.9097 39.3574 87.6684 37.8138C88.4271 36.244 89.4737 35.0012 90.808 34.0855C92.1685 33.1698 93.699 32.712 95.3996 32.712C96.9171 32.712 98.1337 33.1698 99.0494 34.0855C99.9651 34.9751 100.423 36.1917 100.423 37.7353C100.423 39.5405 99.7689 41.0972 98.4607 42.4054C97.1787 43.6874 94.9941 44.7078 91.9068 45.4665C92.5609 46.67 93.8037 47.2717 95.6351 47.2717C96.8124 47.2717 98.1467 46.8662 99.638 46.0552C101.156 45.2179 102.464 44.1322 103.563 42.7978C103.876 42.4316 104.23 42.2484 104.622 42.2484ZM94.7325 36.5579C93.7644 36.5579 92.9403 37.1204 92.26 38.2455C91.606 39.3705 91.2789 40.731 91.2789 42.3269V42.4054C92.8225 42.0391 94.0391 41.4897 94.9287 40.7571C95.8182 40.0246 96.263 39.1743 96.263 38.2062C96.263 37.7091 96.1191 37.3167 95.8313 37.0289C95.5697 36.7149 95.2034 36.5579 94.7325 36.5579ZM104.527 51.1962C103.533 51.1962 102.826 50.673 102.408 49.6264C102.015 48.5799 101.819 46.9055 101.819 44.6031C101.819 41.2019 102.303 37.9707 103.271 34.9097C103.507 34.1509 103.886 33.6015 104.409 33.2614C104.959 32.8951 105.718 32.712 106.686 32.712C107.209 32.712 107.575 32.7774 107.784 32.9082C107.994 33.039 108.098 33.2875 108.098 33.6538C108.098 34.0724 107.902 35.0143 107.51 36.4794C107.248 37.526 107.039 38.4417 106.882 39.2266C106.725 40.0115 106.594 40.9795 106.489 42.1307C107.353 39.8807 108.321 38.0492 109.393 36.6364C110.466 35.2236 111.513 34.2163 112.533 33.6146C113.58 33.0128 114.534 32.712 115.398 32.712C117.098 32.712 117.949 33.5623 117.949 35.2629C117.949 36.2832 117.661 38.1277 117.085 40.7964C116.588 43.0726 116.34 44.5769 116.34 45.3095C116.34 46.356 116.719 46.8793 117.478 46.8793C118.001 46.8793 118.616 46.5653 119.322 45.9374C120.055 45.2833 121.023 44.2368 122.226 42.7978C122.54 42.4316 122.894 42.2484 123.286 42.2484C123.626 42.2484 123.888 42.4054 124.071 42.7194C124.28 43.0333 124.385 43.465 124.385 44.0144C124.385 45.061 124.136 45.872 123.639 46.4476C122.514 47.8343 121.298 48.9724 119.99 49.8619C118.708 50.7514 117.242 51.1962 115.594 51.1962C114.26 51.1962 113.252 50.8169 112.572 50.0581C111.892 49.2732 111.552 48.1482 111.552 46.6831C111.552 45.9505 111.735 44.6424 112.101 42.7586C112.441 41.1103 112.612 39.9722 112.612 39.3443C112.612 38.9257 112.468 38.7164 112.18 38.7164C111.84 38.7164 111.356 39.1612 110.728 40.0507C110.126 40.9141 109.498 42.0653 108.844 43.5043C108.216 44.9432 107.706 46.4607 107.313 48.0566C107.026 49.2863 106.686 50.1235 106.293 50.5683C105.927 50.9869 105.338 51.1962 104.527 51.1962ZM142.716 42.2484C143.056 42.2484 143.318 42.4054 143.501 42.7194C143.71 43.0333 143.815 43.465 143.815 44.0144C143.815 45.061 143.566 45.872 143.069 46.4476C141.996 47.7558 140.819 48.8808 139.537 49.8227C138.255 50.7384 136.986 51.1962 135.73 51.1962C133.742 51.1962 132.224 50.032 131.178 47.7034C130.079 49.0901 129.111 50.0189 128.274 50.4898C127.463 50.9608 126.508 51.1962 125.409 51.1962C123.813 51.1962 122.492 50.6076 121.445 49.4302C120.425 48.2267 119.915 46.67 119.915 44.7601C119.915 42.667 120.359 40.731 121.249 38.9519C122.139 37.1466 123.355 35.6815 124.899 34.5565C126.469 33.4053 128.222 32.725 130.158 32.5157C130.655 27.4401 131.597 23.1101 132.983 19.5257C134.396 15.9152 136.241 14.1099 138.517 14.1099C139.642 14.1099 140.571 14.6201 141.303 15.6405C142.062 16.6609 142.441 18.2045 142.441 20.2714C142.441 23.2016 141.722 26.629 140.283 30.5535C138.844 34.478 136.921 38.5071 134.514 42.6409C134.618 44.1583 134.841 45.2441 135.181 45.8982C135.547 46.5523 136.005 46.8793 136.554 46.8793C137.261 46.8793 137.98 46.5653 138.713 45.9374C139.445 45.3095 140.427 44.263 141.656 42.7978C141.97 42.4316 142.323 42.2484 142.716 42.2484ZM138.085 17.9559C137.588 17.9559 137.091 18.8455 136.594 20.6246C136.097 22.3775 135.665 24.6799 135.299 27.5316C134.959 30.3834 134.71 33.366 134.553 36.4794C137.483 30.0956 138.948 24.9677 138.948 21.0955C138.948 20.1013 138.857 19.3295 138.674 18.7801C138.517 18.2306 138.32 17.9559 138.085 17.9559ZM126.783 47.2325C127.28 47.2325 127.777 47.0363 128.274 46.6438C128.771 46.2252 129.399 45.4665 130.158 44.3676C129.896 42.9548 129.765 41.372 129.765 39.619C129.765 38.9911 129.791 37.9707 129.844 36.5579C128.405 37.0027 127.201 37.9707 126.233 39.462C125.291 40.9272 124.82 42.5624 124.82 44.3676C124.82 46.2775 125.474 47.2325 126.783 47.2325ZM157.34 42.2484C157.681 42.2484 157.942 42.4054 158.125 42.7194C158.335 43.0333 158.439 43.465 158.439 44.0144C158.439 45.061 158.191 45.872 157.694 46.4476C156.726 47.625 155.352 48.7107 153.573 49.7049C151.82 50.6991 149.936 51.1962 147.922 51.1962C145.175 51.1962 143.042 50.4506 141.525 48.9593C140.007 47.468 139.249 45.4272 139.249 42.8371C139.249 41.0318 139.628 39.3574 140.387 37.8138C141.145 36.244 142.192 35.0012 143.526 34.0855C144.887 33.1698 146.417 32.712 148.118 32.712C149.635 32.712 150.852 33.1698 151.768 34.0855C152.683 34.9751 153.141 36.1917 153.141 37.7353C153.141 39.5405 152.487 41.0972 151.179 42.4054C149.897 43.6874 147.712 44.7078 144.625 45.4665C145.279 46.67 146.522 47.2717 148.353 47.2717C149.531 47.2717 150.865 46.8662 152.356 46.0552C153.874 45.2179 155.182 44.1322 156.281 42.7978C156.595 42.4316 156.948 42.2484 157.34 42.2484ZM147.451 36.5579C146.483 36.5579 145.659 37.1204 144.978 38.2455C144.324 39.3705 143.997 40.731 143.997 42.3269V42.4054C145.541 42.0391 146.757 41.4897 147.647 40.7571C148.536 40.0246 148.981 39.1743 148.981 38.2062C148.981 37.7091 148.837 37.3167 148.55 37.0289C148.288 36.7149 147.922 36.5579 147.451 36.5579ZM157.245 51.1962C156.251 51.1962 155.545 50.673 155.126 49.6264C154.734 48.5799 154.537 46.9055 154.537 44.6031C154.537 41.2019 155.021 37.9707 155.99 34.9097C156.225 34.1509 156.604 33.6015 157.128 33.2614C157.677 32.8951 158.436 32.712 159.404 32.712C159.927 32.712 160.293 32.7774 160.503 32.9082C160.712 33.039 160.817 33.2875 160.817 33.6538C160.817 34.0724 160.62 35.0143 160.228 36.4794C159.966 37.526 159.757 38.4417 159.6 39.2266C159.443 40.0115 159.312 40.9795 159.208 42.1307C160.071 39.8807 161.039 38.0492 162.112 36.6364C163.184 35.2236 164.231 34.2163 165.251 33.6146C166.298 33.0128 167.253 32.712 168.116 32.712C169.817 32.712 170.667 33.5623 170.667 35.2629C170.667 35.603 170.549 36.4271 170.314 37.7353C170.105 38.7818 170 39.4359 170 39.6975C170 40.6132 170.327 41.0711 170.981 41.0711C171.714 41.0711 172.655 40.4955 173.807 39.3443C174.147 39.0042 174.5 38.8341 174.866 38.8341C175.206 38.8341 175.468 38.9911 175.651 39.3051C175.86 39.5929 175.965 39.9853 175.965 40.4824C175.965 41.4504 175.703 42.2092 175.18 42.7586C174.448 43.5173 173.584 44.1714 172.59 44.7208C171.622 45.2441 170.589 45.5057 169.49 45.5057C168.103 45.5057 167.043 45.1525 166.311 44.4461C165.604 43.7397 165.251 42.7848 165.251 41.5813C165.251 41.1888 165.291 40.7964 165.369 40.4039C165.421 39.8807 165.447 39.5275 165.447 39.3443C165.447 38.9257 165.304 38.7164 165.016 38.7164C164.623 38.7164 164.1 39.1612 163.446 40.0507C162.818 40.9141 162.19 42.0653 161.562 43.5043C160.934 44.9432 160.424 46.4607 160.032 48.0566C159.744 49.2863 159.404 50.1235 159.011 50.5683C158.645 50.9869 158.056 51.1962 157.245 51.1962ZM185.583 43.4258C185.923 43.4258 186.185 43.5827 186.368 43.8967C186.577 44.2107 186.682 44.6424 186.682 45.1918C186.682 46.1337 186.46 46.9447 186.015 47.625C185.282 48.75 184.314 49.6264 183.111 50.2543C181.933 50.8823 180.521 51.1962 178.872 51.1962C176.361 51.1962 174.411 50.4506 173.025 48.9593C171.638 47.4418 170.945 45.4011 170.945 42.8371C170.945 41.0318 171.324 39.3574 172.083 37.8138C172.842 36.244 173.888 35.0012 175.222 34.0855C176.583 33.1698 178.114 32.712 179.814 32.712C181.332 32.712 182.548 33.1698 183.464 34.0855C184.38 34.9751 184.837 36.1917 184.837 37.7353C184.837 39.5405 184.183 41.0972 182.875 42.4054C181.593 43.6874 179.396 44.7078 176.282 45.4665C176.91 46.67 177.97 47.2717 179.461 47.2717C180.534 47.2717 181.41 47.0232 182.09 46.5261C182.797 46.029 183.608 45.1918 184.523 44.0144C184.837 43.622 185.191 43.4258 185.583 43.4258ZM179.147 36.5579C178.179 36.5579 177.355 37.1204 176.675 38.2455C176.02 39.3705 175.693 40.731 175.693 42.3269V42.4054C177.237 42.0391 178.454 41.4897 179.343 40.7571C180.233 40.0246 180.678 39.1743 180.678 38.2062C180.678 37.7091 180.534 37.3167 180.246 37.0289C179.984 36.7149 179.618 36.5579 179.147 36.5579Z" fill="#F1B000"/>
</g>
<g filter="url(#filter1_d)">
<path d="M55.7418 47.9112C55.7418 59.965 44.879 69.7365 32.8253 69.7365C20.7715 69.7365 11 59.965 11 47.9112C11 35.8574 20.7715 26.0859 32.8253 26.0859" stroke="#F1B000" stroke-width="3.27379" stroke-linecap="round"/>
</g>
<g filter="url(#filter2_d)">
<path d="M45.4197 48.7286L27.6111 59.0104C27.2281 59.2316 26.7494 58.9552 26.7494 58.5129L26.7494 37.9493C26.7494 37.5071 27.2281 37.2307 27.6111 37.4518L45.4197 47.7336C45.8027 47.9547 45.8027 48.5075 45.4197 48.7286Z" stroke="white" stroke-width="1.81915" shape-rendering="crispEdges"/>
</g>
<defs>
<filter id="filter0_d" x="45.4886" y="14.1094" width="141.193" height="46.6798" filterUnits="userSpaceOnUse" color-interpolation-filters="sRGB">
<feFlood flood-opacity="0" result="BackgroundImageFix"/>
<feColorMatrix in="SourceAlpha" type="matrix" values="0 0 0 0 0 0 0 0 0 0 0 0 0 0 0 0 0 0 127 0" result="hardAlpha"/>
<feOffset dx="-4.36505" dy="4.36505"/>
<feGaussianBlur stdDeviation="2.18253"/>
<feComposite in2="hardAlpha" operator="out"/>
<feColorMatrix type="matrix" values="0 0 0 0 1 0 0 0 0 1 0 0 0 0 1 0 0 0 0.25 0"/>
<feBlend mode="normal" in2="BackgroundImageFix" result="effect1_dropShadow"/>
<feBlend mode="normal" in="SourceGraphic" in2="effect1_dropShadow" result="shape"/>
</filter>
<filter id="filter1_d" x="0.633173" y="24.4492" width="56.7457" height="55.6544" filterUnits="userSpaceOnUse" color-interpolation-filters="sRGB">
<feFlood flood-opacity="0" result="BackgroundImageFix"/>
<feColorMatrix in="SourceAlpha" type="matrix" values="0 0 0 0 0 0 0 0 0 0 0 0 0 0 0 0 0 0 127 0" result="hardAlpha"/>
<feOffset dx="-4.36505" dy="4.36505"/>
<feGaussianBlur stdDeviation="2.18253"/>
<feComposite in2="hardAlpha" operator="out"/>
<feColorMatrix type="matrix" values="0 0 0 0 1 0 0 0 0 1 0 0 0 0 1 0 0 0 0.25 0"/>
<feBlend mode="normal" in2="BackgroundImageFix" result="effect1_dropShadow"/>
<feBlend mode="normal" in="SourceGraphic" in2="effect1_dropShadow" result="shape"/>
</filter>
<filter id="filter2_d" x="22.8717" y="36.4629" width="23.7448" height="26.5042" filterUnits="userSpaceOnUse" color-interpolation-filters="sRGB">
<feFlood flood-opacity="0" result="BackgroundImageFix"/>
<feColorMatrix in="SourceAlpha" type="matrix" values="0 0 0 0 0 0 0 0 0 0 0 0 0 0 0 0 0 0 127 0" result="hardAlpha"/>
<feOffset dx="-1.48405" dy="1.48405"/>
<feGaussianBlur stdDeviation="0.742025"/>
<feComposite in2="hardAlpha" operator="out"/>
<feColorMatrix type="matrix" values="0 0 0 0 1 0 0 0 0 1 0 0 0 0 1 0 0 0 0.25 0"/>
<feBlend mode="normal" in2="BackgroundImageFix" result="effect1_dropShadow"/>
<feBlend mode="normal" in="SourceGraphic" in2="effect1_dropShadow" result="shape"/>
</filter>
</defs>
</svg>
