<svg width="48" height="48" viewBox="0 0 48 48" fill="none" xmlns="http://www.w3.org/2000/svg">
<g clip-path="url(#clip0)">
<path fill-rule="evenodd" clip-rule="evenodd" d="M41.5032 17.2615C38.827 17.8899 36.7491 22.4481 36.7491 26.0203C36.7491 29.865 39.1563 35.6833 42.1257 35.6833C42.3497 35.6833 42.5705 35.6502 42.7873 35.5873C41.3583 40.2021 38.811 44.9737 36.0248 47.0077C33.8156 48.6204 31.5522 47.952 29.047 47.2121C27.5142 46.7595 25.891 46.2802 24.1343 46.2802C22.5508 46.2802 21.2401 46.7775 20.0282 47.2374C18.1058 47.9669 16.4319 48.602 14.3117 47.0077C10.1762 43.8979 5.21289 34.3881 5.21289 28.8243C5.21289 11.8881 16.2762 10.953 24.1343 14.9013C28.4822 12.8318 37.2194 10.2532 41.5032 17.2615Z" fill="white"/>
<path fill-rule="evenodd" clip-rule="evenodd" d="M23.8804 12.3073C23.8725 12.3532 23.889 12.4013 23.9242 12.4317C23.931 12.4376 23.9383 12.4427 23.9458 12.4469C23.9518 12.4553 23.9588 12.463 23.9669 12.47C24.0022 12.5004 24.0519 12.5096 24.0959 12.4948C30.8791 10.2088 32.8571 7.87746 33.0502 2.02643C33.0516 1.98396 33.0337 1.94207 33.0017 1.91437C32.9926 1.90654 32.9828 1.90007 32.9726 1.89497C32.9656 1.88429 32.957 1.87441 32.9468 1.86566C32.9148 1.83796 32.8708 1.8265 32.8293 1.83429C27.1024 2.90785 25.107 5.22422 23.8804 12.3073Z" fill="white"/>
</g>
<defs>
<clipPath id="clip0">
<rect width="48" height="48" fill="white"/>
</clipPath>
</defs>
</svg>
